<svg id="Capa_1" data-name="Capa 1" xmlns="http://www.w3.org/2000/svg" viewBox="0 0 2681.68253 3409.2234"><defs><style>.cls-1{fill:#efc351;}.cls-2{fill:#967151;}.cls-3{fill:#ffdbc1;}.cls-4{fill:#1e1e1e;}.cls-5{fill:#ffa684;}.cls-6{fill:#f6dd9c;}.cls-7{fill:#4d4d4d;}.cls-8{fill:#550400;}.cls-9{fill:#0007ff;}</style></defs><title>woman 2</title><path class="cls-1" d="M519.78516,867.14063s117.23047,420.30078,531.42578,565.78906c414.19922,145.49219,565.28906-207.46094,557.46875-218.23828-7.8086-10.76953-544.44141-433.76953-544.44141-433.76953L699.53516,627.35156,558.86328,613.87891Z" transform="translate(-512.68111 -340.7766)"/><path class="cls-2" d="M2226.85156,1803.03125c-201.21093,1.86719-292.53125,166.04688-292.53125,166.04688l408.98828,730.14062s252.74219,771.25,490.0625,1050.78125h221.10938c51.39844-43.26953,132.75-202.92187,74.73828-381.82031.3125-.10938,40.85156,7.86719,42.17188,163.99219,90.19921-521.15625-104.5-672.40235-249.78125-962.26172,0,0-46.89063-474.17969-432.4375-689.71875C2386.76172,1822.94141,2299.62891,1802.35938,2226.85156,1803.03125Z" transform="translate(-512.68111 -340.7766)"/><path class="cls-2" d="M1197.10156,1012.62891s-398.57422,207.4414-395.96875,576.5625c2.60547,369.10937,218.8086,775.94922,218.8086,775.94922l-23.44532-40.42188s-72.9414,86.23047-26.05078,226.332c46.89453,140.09766,59.91407,223.61719,2.60547,299.0586-57.3125,75.4375-578.3164,425.6914-395.96484,759.78125,0,0,15.63672-140.09375,88.57422-242.47657,0,0-82.66016,237.61719-10.73047,382.58594h374.83984c11.832-53.66406,16.23047-91.60937,16.23047-91.60937A388.68617,388.68617,0,0,1,1090.03125,3750h80.32031c7.1875-40.0625,6.13672-86.76562-9.72265-140.10937l-46.89844-43.11329,541.85937-484.97265,26.01954-889.08594S1374.23828,1007.23828,1197.10156,1012.62891Z" transform="translate(-512.68111 -340.7766)"/><path class="cls-3" d="M1207.51172,1082.67969s-127.64063,193.98047-151.08984,258.64844c-23.44141,64.66015-54.70313,317.92187-54.70313,317.92187s-70.33984,86.21094-67.73437,126.62891c2.60546,40.41015,59.918,80.832,59.918,80.832s0,64.66015-16.93359,87.55859c-16.93359,22.90235-24.75,36.3711-16.93359,59.26953a122.23087,122.23087,0,0,0,20.83984,37.72266s-24.74609,37.71875-15.62891,66.00781,45.582,66.01172,45.582,66.01172-10.418,68.69922-19.53125,90.25781c-9.11719,21.55078-41.67969,129.32032,39.07421,177.82032,80.75782,48.5,390.75782,43.10937,390.75782,43.10937s117.22265,350.25391,36.46093,555.01563c-80.75,204.76562-494.94921,700.50781-494.94921,700.50781h2167.3789s20.83985-517.29688-317.82031-700.50781c-338.64844-183.207-453.26953-188.59766-510.57813-258.64844-57.3125-70.05469-177.14062-921.4375-177.14062-921.4375S1535.73828,904.85938,1207.51172,1082.67969Z" transform="translate(-512.68111 -340.7766)"/><path class="cls-4" d="M1129.35938,1430.23828s-27.34766-114.50781-102.89844-137.41015c-75.543-22.89844-153.69141-21.54688-174.53516-8.07813-20.83984,13.46875-13.02344,351.60156,18.23828,386.62109,31.25782,35.02735,91.17578,26.94922,106.80469,26.94922s45.58984-25.60156,61.21094-37.71875c15.64062-12.13281,49.5-107.78125,49.5-107.78125l41.67969,12.12891s-5.21094,173.78125,57.3125,220.92969c62.51953,47.15234,179.75,30.98047,208.39843,21.55078,28.66016-9.42969,75.55078-43.10938,85.96875-96.98828l461.08985,24.25-101.59766-191.30078-317.8125-37.71094s-13.02734-51.19922-62.51953-83.51953c-49.5-32.33985-139.37109-47.16016-166.71875-47.16016-27.35156,0-117.23047,14.82031-145.87891,61.96875Z" transform="translate(-512.68111 -340.7766)"/><path class="cls-5" d="M1900.14063,1811.83984s-7.3711,422.92188-103.15235,510.5586c-72.0664,65.9414-454.75,131.85156-639.89844,160.46094,106.60157,12.78906,227.39063,11.92187,251.082,11.64062a2.48442,2.48442,0,0,1,.29687,0q6.42188-.22266,12.64063-.03125c136.23046,4.40234,549.03125-38.707,549.03125-38.707l3.668-45.73047,114.21094-449.60156Z" transform="translate(-512.68111 -340.7766)"/><path class="cls-2" d="M1634.73047,1422.16016s247.48047,484.96093,299.57812,546.92968c-117.82812,432.60938,96.38282,1551.07422,616.082,1305.85547,0,0-351.83985,19.07813-175.01172-224.77734,208.32031,115.418,325.75-15.19922,361.043-45.72266L2213.05078,1707.75Z" transform="translate(-512.68111 -340.7766)"/><path class="cls-6" d="M519.78516,867.14063s-10.418-377.19922,250.08593-177.82032c260.5,199.3711,864.85938,905.26953,1161.83985,1083.08985,296.96875,177.82031,682.50781,361.03125,797.1289,447.23828,114.62891,86.22265,192.76954,301.76172,192.76954,350.26172,0,0,114.62109-172.42969-328.23047-705.89844,0,0,312.60156-565.793,296.97265-673.5625-15.63281-107.76953-41.67968-344.87109-244.87109-501.12891-203.19141-156.26953-448.05859-307.14843-687.71875-339.48047-239.66016-32.32812-213.62109,26.94141-276.13281,96.98829-62.51953,70.05078-364.707,414.92187-364.707,414.92187S1012.14063,675.85156,863.64844,638.12109c-148.48438-37.71093-265.71094-59.26953-304.78516-24.24218C519.78516,648.89844,501.55078,829.42188,519.78516,867.14063Z" transform="translate(-512.68111 -340.7766)"/><path class="cls-7" d="M1403.71094,1486.05859c-27.63281-37.14843-97.6211-59.05859-149.19922-55.25-51.582,3.8125-93.03125,11.42969-99.47266,70.49219-6.44922,59.0586,12.89063,235.27735,46.05078,256.23828s109.60157,29.53125,135.39063,9.53125C1376.35938,1722.57813,1425.46094,1520.67188,1403.71094,1486.05859Z" transform="translate(-512.68111 -340.7766)"/><path class="cls-7" d="M948.73047,1340.32031s-59.86328-3.80859-80.125,17.14063c-20.26172,20.96094,2.75781,273.39062,23.02344,288.6289s92.10156,31.42969,128.01953-2.85937c35.92187-34.28906,49.73047-180.03906,49.73047-210.51953s-62.61719-85.73047-120.64844-92.40235Z" transform="translate(-512.68111 -340.7766)"/><path class="cls-4" d="M1029.71875,1859.30078s-1.30859-23.582,13.01953-23.582c14.332,0,44.94141,30.3125,44.94141,30.3125s-21.48828-11.45312-27.35156-9.42187C1054.46875,1858.62109,1049.91016,1874.78906,1029.71875,1859.30078Z" transform="translate(-512.68111 -340.7766)"/><path class="cls-5" d="M1134.57031,1890.94922s31.25782-8.07813,37.76953-32.32813c6.51954-24.25-6.51171-39.0625-6.51171-39.0625S1254.39844,1895,1134.57031,1890.94922Z" transform="translate(-512.68111 -340.7766)"/><path class="cls-8" d="M992.91016,1977.78125c-12.01953-.03125-24.75782,4.94922-34.69141,10.07813-1.87109,7.82031-1.53906,15.89062,1.80469,25.6914a122.199,122.199,0,0,0,20.84375,37.71875s-24.75,37.71094-15.63281,66c5.92187,18.3711,22.793,39.8086,34.30468,53.23047,73.19141,3.85156,191.03125-23.58984,191.03125-23.58984l31.25782-21.55078s-54.69922-63.32813-84.64844-80.83985c-29.96094-17.50781-110.71094-60.60937-136.75781-66A37.51093,37.51093,0,0,0,992.91016,1977.78125Z" transform="translate(-512.68111 -340.7766)"/><path class="cls-4" d="M980.875,2051.26172s65.125,12.12891,104.20313,21.55859c39.07031,9.42969,108.10156,49.83985,121.13281,49.83985,13.01953,0,35.168-20.21094,44.28906-8.082,9.10938,12.12109-27.35937,32.332-39.07812,32.332-11.72266,0-21.49219-22.89844-29.63282-26.60938C1173.64844,2116.60156,1035.57813,2060.69141,980.875,2051.26172Z" transform="translate(-512.68111 -340.7766)"/><path class="cls-9" d="M1404.70087,789.54561c-33.91016,38.668-86.58985,98.72656-86.58985,98.72656s1021.14844,414.94141,1276.4375,1002.28125c0,0,26.57031-48.48828,62.582-116.82031C2526.3493,1534.823,2156.93915,995.24483,1404.70087,789.54561Z" transform="translate(-512.68111 -340.7766)"/></svg>